<svg width="1033" height="138" viewBox="0 0 1033 138" fill="none" xmlns="http://www.w3.org/2000/svg">
<path d="M50.52 137.344C41.176 137.344 32.728 135.744 25.176 132.544C17.752 129.344 11.864 124.736 7.512 118.72C3.16 112.704 0.92 105.6 0.792001 97.408H29.592C29.976 102.912 31.896 107.264 35.352 110.464C38.936 113.664 43.8 115.264 49.944 115.264C56.216 115.264 61.144 113.792 64.728 110.848C68.312 107.776 70.104 103.808 70.104 98.944C70.104 94.976 68.888 91.712 66.456 89.152C64.024 86.592 60.952 84.608 57.24 83.2C53.656 81.664 48.664 80 42.264 78.208C33.56 75.648 26.456 73.152 20.952 70.72C15.576 68.16 10.904 64.384 6.936 59.392C3.096 54.272 1.176 47.488 1.176 39.04C1.176 31.104 3.16 24.192 7.128 18.304C11.096 12.416 16.664 7.93599 23.832 4.86399C31 1.664 39.192 0.0639992 48.408 0.0639992C62.232 0.0639992 73.432 3.456 82.008 10.24C90.712 16.896 95.512 26.24 96.408 38.272H66.84C66.584 33.664 64.6 29.888 60.888 26.944C57.304 23.872 52.504 22.336 46.488 22.336C41.24 22.336 37.016 23.68 33.816 26.368C30.744 29.056 29.208 32.96 29.208 38.08C29.208 41.664 30.36 44.672 32.664 47.104C35.096 49.408 38.04 51.328 41.496 52.864C45.08 54.272 50.072 55.936 56.472 57.856C65.176 60.416 72.28 62.976 77.784 65.536C83.288 68.096 88.024 71.936 91.992 77.056C95.96 82.176 97.944 88.896 97.944 97.216C97.944 104.384 96.088 111.04 92.376 117.184C88.664 123.328 83.224 128.256 76.056 131.968C68.888 135.552 60.376 137.344 50.52 137.344ZM197.28 67.264C204.832 68.672 211.04 72.448 215.904 78.592C220.768 84.736 223.2 91.776 223.2 99.712C223.2 106.88 221.408 113.216 217.824 118.72C214.368 124.096 209.312 128.32 202.656 131.392C196 134.464 188.128 136 179.04 136H121.248V1.984H176.544C185.632 1.984 193.44 3.456 199.968 6.4C206.624 9.344 211.616 13.44 214.944 18.688C218.4 23.936 220.128 29.888 220.128 36.544C220.128 44.352 218.016 50.88 213.792 56.128C209.696 61.376 204.192 65.088 197.28 67.264ZM148.128 57.28H172.704C179.104 57.28 184.032 55.872 187.488 53.056C190.944 50.112 192.672 45.952 192.672 40.576C192.672 35.2 190.944 31.04 187.488 28.096C184.032 25.152 179.104 23.68 172.704 23.68H148.128V57.28ZM175.2 114.112C181.728 114.112 186.784 112.576 190.368 109.504C194.08 106.432 195.936 102.08 195.936 96.448C195.936 90.688 194.016 86.208 190.176 83.008C186.336 79.68 181.152 78.016 174.624 78.016H148.128V114.112H175.2ZM290.895 137.344C281.551 137.344 273.103 135.744 265.551 132.544C258.127 129.344 252.239 124.736 247.887 118.72C243.535 112.704 241.295 105.6 241.167 97.408H269.967C270.351 102.912 272.271 107.264 275.727 110.464C279.311 113.664 284.175 115.264 290.319 115.264C296.591 115.264 301.519 113.792 305.103 110.848C308.687 107.776 310.479 103.808 310.479 98.944C310.479 94.976 309.263 91.712 306.831 89.152C304.399 86.592 301.327 84.608 297.615 83.2C294.031 81.664 289.039 80 282.639 78.208C273.935 75.648 266.831 73.152 261.327 70.72C255.951 68.16 251.279 64.384 247.311 59.392C243.471 54.272 241.551 47.488 241.551 39.04C241.551 31.104 243.535 24.192 247.503 18.304C251.471 12.416 257.039 7.93599 264.207 4.86399C271.375 1.664 279.567 0.0639992 288.783 0.0639992C302.607 0.0639992 313.807 3.456 322.383 10.24C331.087 16.896 335.887 26.24 336.783 38.272H307.215C306.959 33.664 304.975 29.888 301.263 26.944C297.679 23.872 292.879 22.336 286.863 22.336C281.615 22.336 277.391 23.68 274.191 26.368C271.119 29.056 269.583 32.96 269.583 38.08C269.583 41.664 270.735 44.672 273.039 47.104C275.471 49.408 278.415 51.328 281.871 52.864C285.455 54.272 290.447 55.936 296.847 57.856C305.551 60.416 312.655 62.976 318.159 65.536C323.663 68.096 328.399 71.936 332.367 77.056C336.335 82.176 338.319 88.896 338.319 97.216C338.319 104.384 336.463 111.04 332.751 117.184C329.039 123.328 323.599 128.256 316.431 131.968C309.263 135.552 300.751 137.344 290.895 137.344ZM423.831 137.344C411.287 137.344 399.767 134.4 389.271 128.512C378.775 122.624 370.455 114.496 364.311 104.128C358.167 93.632 355.095 81.792 355.095 68.608C355.095 55.552 358.167 43.84 364.311 33.472C370.455 22.976 378.775 14.784 389.271 8.89599C399.767 3.008 411.287 0.0639992 423.831 0.0639992C436.503 0.0639992 448.023 3.008 458.391 8.89599C468.887 14.784 477.143 22.976 483.159 33.472C489.303 43.84 492.375 55.552 492.375 68.608C492.375 81.792 489.303 93.632 483.159 104.128C477.143 114.496 468.887 122.624 458.391 128.512C447.895 134.4 436.375 137.344 423.831 137.344ZM423.831 113.344C431.895 113.344 438.999 111.552 445.143 107.968C451.287 104.256 456.087 99.008 459.543 92.224C462.999 85.44 464.727 77.568 464.727 68.608C464.727 59.648 462.999 51.84 459.543 45.184C456.087 38.4 451.287 33.216 445.143 29.632C438.999 26.048 431.895 24.256 423.831 24.256C415.767 24.256 408.599 26.048 402.327 29.632C396.183 33.216 391.383 38.4 387.927 45.184C384.471 51.84 382.743 59.648 382.743 68.608C382.743 77.568 384.471 85.44 387.927 92.224C391.383 99.008 396.183 104.256 402.327 107.968C408.599 111.552 415.767 113.344 423.831 113.344ZM505.845 68.8C505.845 55.616 508.789 43.84 514.677 33.472C520.693 22.976 528.821 14.848 539.061 9.088C549.429 3.2 561.013 0.255997 573.813 0.255997C588.789 0.255997 601.909 4.096 613.173 11.776C624.437 19.456 632.309 30.08 636.789 43.648H605.877C602.805 37.248 598.453 32.448 592.821 29.248C587.317 26.048 580.917 24.448 573.621 24.448C565.813 24.448 558.837 26.304 552.693 30.016C546.677 33.6 541.941 38.72 538.485 45.376C535.157 52.032 533.493 59.84 533.493 68.8C533.493 77.632 535.157 85.44 538.485 92.224C541.941 98.88 546.677 104.064 552.693 107.776C558.837 111.36 565.813 113.152 573.621 113.152C580.917 113.152 587.317 111.552 592.821 108.352C598.453 105.024 602.805 100.16 605.877 93.76H636.789C632.309 107.456 624.437 118.144 613.173 125.824C602.037 133.376 588.917 137.152 573.813 137.152C561.013 137.152 549.429 134.272 539.061 128.512C528.821 122.624 520.693 114.496 514.677 104.128C508.789 93.76 505.845 81.984 505.845 68.8ZM686.628 1.984V136H659.748V1.984H686.628ZM740.066 23.68V57.28H785.186V78.592H740.066V114.112H790.946V136H713.186V1.79199H790.946V23.68H740.066ZM906.573 1.984V23.68H870.861V136H843.981V23.68H808.269V1.984H906.573ZM1032.75 1.984L987.434 89.344V136H960.554V89.344L915.05 1.984H945.386L974.186 63.232L1002.79 1.984H1032.75Z" fill="black"/>
</svg>
