<svg width="1014" height="138" viewBox="0 0 1014 138" fill="none" xmlns="http://www.w3.org/2000/svg">
<path d="M47.368 137.344C38.408 137.344 30.344 135.808 23.176 132.736C16.008 129.536 10.376 125.056 6.28 119.296C2.184 113.536 0.136 106.816 0.136 99.136H23.56C24.072 104.896 26.312 109.632 30.28 113.344C34.376 117.056 40.072 118.912 47.368 118.912C54.92 118.912 60.808 117.12 65.032 113.536C69.256 109.824 71.368 105.088 71.368 99.328C71.368 94.848 70.024 91.2 67.336 88.384C64.776 85.568 61.512 83.392 57.544 81.856C53.704 80.32 48.328 78.656 41.416 76.864C32.712 74.56 25.608 72.256 20.104 69.952C14.728 67.52 10.12 63.808 6.28 58.816C2.44 53.824 0.52 47.168 0.52 38.848C0.52 31.168 2.44 24.448 6.28 18.688C10.12 12.928 15.496 8.512 22.408 5.44C29.32 2.36799 37.32 0.831989 46.408 0.831989C59.336 0.831989 69.896 4.09599 78.088 10.624C86.408 17.024 91.016 25.856 91.912 37.12H67.72C67.336 32.256 65.032 28.096 60.808 24.64C56.584 21.184 51.016 19.456 44.104 19.456C37.832 19.456 32.712 21.056 28.744 24.256C24.776 27.456 22.792 32.064 22.792 38.08C22.792 42.176 24.008 45.568 26.44 48.256C29 50.816 32.2 52.864 36.04 54.4C39.88 55.936 45.128 57.6 51.784 59.392C60.616 61.824 67.784 64.256 73.288 66.688C78.92 69.12 83.656 72.896 87.496 78.016C91.464 83.008 93.448 89.728 93.448 98.176C93.448 104.96 91.592 111.36 87.88 117.376C84.296 123.392 78.984 128.256 71.944 131.968C65.032 135.552 56.84 137.344 47.368 137.344ZM190.699 67.456C197.867 68.736 203.947 72.512 208.939 78.784C213.931 85.056 216.427 92.16 216.427 100.096C216.427 106.88 214.635 113.024 211.051 118.528C207.595 123.904 202.539 128.192 195.883 131.392C189.227 134.464 181.483 136 172.651 136H119.275V2.55999H170.155C179.243 2.55999 187.051 4.09599 193.579 7.168C200.107 10.24 205.035 14.4 208.363 19.648C211.691 24.768 213.355 30.528 213.355 36.928C213.355 44.608 211.307 51.008 207.211 56.128C203.115 61.248 197.611 65.024 190.699 67.456ZM141.163 58.624H168.235C175.403 58.624 180.971 57.024 184.939 53.824C189.035 50.496 191.083 45.76 191.083 39.616C191.083 33.6 189.035 28.928 184.939 25.6C180.971 22.144 175.403 20.416 168.235 20.416H141.163V58.624ZM170.731 118.144C178.155 118.144 183.979 116.352 188.203 112.768C192.427 109.184 194.539 104.192 194.539 97.792C194.539 91.264 192.299 86.08 187.819 82.24C183.339 78.4 177.387 76.48 169.963 76.48H141.163V118.144H170.731ZM284.181 137.344C275.221 137.344 267.157 135.808 259.989 132.736C252.821 129.536 247.189 125.056 243.093 119.296C238.997 113.536 236.949 106.816 236.949 99.136H260.373C260.885 104.896 263.125 109.632 267.093 113.344C271.189 117.056 276.885 118.912 284.181 118.912C291.733 118.912 297.621 117.12 301.845 113.536C306.069 109.824 308.181 105.088 308.181 99.328C308.181 94.848 306.837 91.2 304.149 88.384C301.589 85.568 298.325 83.392 294.357 81.856C290.517 80.32 285.141 78.656 278.229 76.864C269.525 74.56 262.421 72.256 256.917 69.952C251.541 67.52 246.933 63.808 243.093 58.816C239.253 53.824 237.333 47.168 237.333 38.848C237.333 31.168 239.253 24.448 243.093 18.688C246.933 12.928 252.309 8.512 259.221 5.44C266.133 2.36799 274.133 0.831989 283.221 0.831989C296.149 0.831989 306.709 4.09599 314.901 10.624C323.221 17.024 327.829 25.856 328.725 37.12H304.533C304.149 32.256 301.845 28.096 297.621 24.64C293.397 21.184 287.829 19.456 280.917 19.456C274.645 19.456 269.525 21.056 265.557 24.256C261.589 27.456 259.605 32.064 259.605 38.08C259.605 42.176 260.821 45.568 263.253 48.256C265.813 50.816 269.013 52.864 272.853 54.4C276.693 55.936 281.941 57.6 288.597 59.392C297.429 61.824 304.597 64.256 310.101 66.688C315.733 69.12 320.469 72.896 324.309 78.016C328.277 83.008 330.261 89.728 330.261 98.176C330.261 104.96 328.405 111.36 324.693 117.376C321.109 123.392 315.797 128.256 308.757 131.968C301.845 135.552 293.653 137.344 284.181 137.344ZM416.952 137.344C404.536 137.344 393.08 134.464 382.584 128.704C372.216 122.816 363.96 114.688 357.816 104.32C351.8 93.824 348.792 82.048 348.792 68.992C348.792 55.936 351.8 44.224 357.816 33.856C363.96 23.488 372.216 15.424 382.584 9.66399C393.08 3.77599 404.536 0.831989 416.952 0.831989C429.496 0.831989 440.952 3.77599 451.32 9.66399C461.816 15.424 470.072 23.488 476.088 33.856C482.104 44.224 485.112 55.936 485.112 68.992C485.112 82.048 482.104 93.824 476.088 104.32C470.072 114.688 461.816 122.816 451.32 128.704C440.952 134.464 429.496 137.344 416.952 137.344ZM416.952 118.336C425.784 118.336 433.656 116.352 440.568 112.384C447.48 108.288 452.856 102.528 456.696 95.104C460.664 87.552 462.648 78.848 462.648 68.992C462.648 59.136 460.664 50.496 456.696 43.072C452.856 35.648 447.48 29.952 440.568 25.984C433.656 22.016 425.784 20.032 416.952 20.032C408.12 20.032 400.248 22.016 393.336 25.984C386.424 29.952 380.984 35.648 377.016 43.072C373.176 50.496 371.256 59.136 371.256 68.992C371.256 78.848 373.176 87.552 377.016 95.104C380.984 102.528 386.424 108.288 393.336 112.384C400.248 116.352 408.12 118.336 416.952 118.336ZM499.354 68.992C499.354 55.936 502.362 44.224 508.378 33.856C514.522 23.488 522.778 15.424 533.146 9.66399C543.642 3.77599 555.098 0.831989 567.514 0.831989C581.722 0.831989 594.33 4.35199 605.338 11.392C616.474 18.304 624.538 28.16 629.53 40.96H603.226C599.77 33.92 594.97 28.672 588.826 25.216C582.682 21.76 575.578 20.032 567.514 20.032C558.682 20.032 550.81 22.016 543.898 25.984C536.986 29.952 531.546 35.648 527.578 43.072C523.738 50.496 521.818 59.136 521.818 68.992C521.818 78.848 523.738 87.488 527.578 94.912C531.546 102.336 536.986 108.096 543.898 112.192C550.81 116.16 558.682 118.144 567.514 118.144C575.578 118.144 582.682 116.416 588.826 112.96C594.97 109.504 599.77 104.256 603.226 97.216H629.53C624.538 110.016 616.474 119.872 605.338 126.784C594.33 133.696 581.722 137.152 567.514 137.152C554.97 137.152 543.514 134.272 533.146 128.512C522.778 122.624 514.522 114.496 508.378 104.128C502.362 93.76 499.354 82.048 499.354 68.992ZM677.038 2.55999V136H655.15V2.55999H677.038ZM727.663 20.224V59.392H773.743V77.248H727.663V118.144H779.503V136H705.775V2.36799H779.503V20.224H727.663ZM892.671 2.55999V20.416H857.151V136H835.263V20.416H799.551V2.55999H892.671ZM1013.72 2.55999L969.558 87.616V136H947.67V87.616L903.318 2.55999H927.702L958.614 68.032L989.526 2.55999H1013.72Z" fill="black"/>
</svg>
